<?xml version="1.0" encoding="UTF-8" standalone="no"?>
<!DOCTYPE svg PUBLIC "-//W3C//DTD SVG 1.1//EN" "http://www.w3.org/Graphics/SVG/1.1/DTD/svg11.dtd">
<svg width="100%" height="100%" viewBox="0 0 35 35" version="1.1" xmlns="http://www.w3.org/2000/svg" xmlns:xlink="http://www.w3.org/1999/xlink" xml:space="preserve" xmlns:serif="http://www.serif.com/" style="fill-rule:evenodd;clip-rule:evenodd;stroke-linejoin:round;stroke-miterlimit:2;">
    <g id="OBJECTS" transform="matrix(1,0,0,1,-7.175,-13.475)">
        <path d="M24.4,31.8C24.4,31.9 24.4,31.8 24.4,31.8L24.4,31.8ZM24.4,31.8C24.4,31.9 24.4,31.8 24.4,31.8L24.4,31.8Z" style="fill:rgb(166,241,255);fill-rule:nonzero;"/>
        <path d="M24.4,31.8C24.4,31.7 24.4,31.8 24.4,31.8L24.4,31.8ZM24.4,31.8C24.4,31.7 24.4,31.8 24.4,31.8L24.4,31.8Z" style="fill:rgb(166,241,255);fill-rule:nonzero;"/>
        <g>
            <path d="M12.4,30.6C12.4,37.2 17.8,42.6 24.4,42.6C31,42.6 36.4,37.2 36.4,30.6C36.4,24 31,18.6 24.4,18.6C17.8,18.6 12.4,24 12.4,30.6ZM36.4,30.6C36.4,24 31,18.6 24.4,18.6M23.4,37.2C19.9,37.2 17.1,34.4 17.1,30.9C17.1,27.4 17.6,28.1 18.4,27C17.8,28 17.4,29.1 17.4,30.3C17.4,31.5 18.1,33.5 19.2,34.7C18.3,33.6 17.8,32.2 17.8,30.6C17.8,27 20.7,24.1 24.3,24.1L25.2,24.1C28.6,24.4 31.5,26.6 31.9,30.1C32.1,31.7 31.7,33.2 30.9,34.4C31.4,33.3 31.7,32 31.6,30.7C31.4,28.9 30.6,27.4 29.3,26.3C30.3,27.4 30.9,28.9 30.9,30.6C30.9,34.2 28,37.1 24.4,37.1L23.4,37.1L23.4,37.2Z" style="fill:url(#_Linear1);fill-rule:nonzero;"/>
            <g>
                <path d="M37.1,25.4L38.6,21.8C38.6,21.8 38.2,20.4 36.5,18.6C34.7,16.9 33.3,16.5 33.3,16.5L29.7,18L28.2,14.4C28.2,14.4 26.9,13.7 24.5,13.7C22,13.7 20.8,14.4 20.8,14.4L19.3,18L15.7,16.5C15.7,16.5 14.3,16.9 12.5,18.6C10.8,20.4 10.4,21.8 10.4,21.8L11.9,25.4L8.3,26.9C8.3,26.9 7.6,28.2 7.6,30.6C7.6,33.1 8.3,34.3 8.3,34.3L11.9,35.8L10.4,39.4C10.4,39.4 10.8,40.8 12.5,42.6C14.3,44.3 15.7,44.7 15.7,44.7L19.3,43.2L20.8,46.8C20.8,46.8 22.1,47.5 24.5,47.5C27,47.5 28.2,46.8 28.2,46.8L29.7,43.2L33.3,44.7C33.3,44.7 34.7,44.3 36.5,42.6C38.2,40.8 38.6,39.4 38.6,39.4L37.1,35.8L40.7,34.3C40.7,34.3 41.4,33 41.4,30.6C41.4,28.1 40.7,26.9 40.7,26.9L37.1,25.4ZM24.3,13.6L24.3,13.6ZM29.6,17.9L28.1,14.3C28.1,14.3 26.8,13.6 24.4,13.6C21.9,13.6 20.7,14.3 20.7,14.3L19.2,17.9M31.6,38C29.7,39.9 27.2,41 24.5,41L24.3,41C21.6,41 19.1,39.9 17.2,38.1C15.3,36.2 14.3,33.7 14.3,31L14.3,30.8C14.3,28.1 15.4,25.6 17.2,23.7C19.1,21.8 21.6,20.7 24.3,20.7L24.5,20.7C27.2,20.7 29.7,21.8 31.6,23.6C33.5,25.5 34.5,28 34.5,30.7L34.5,30.9C34.5,33.6 33.4,36.1 31.6,38Z" style="fill:url(#_Radial2);fill-rule:nonzero;"/>
                <path d="M24.3,13.6C24.4,13.6 24.3,13.6 24.3,13.6L24.3,13.6ZM24.3,13.6C24.4,13.6 24.3,13.6 24.3,13.6L24.3,13.6Z" style="fill:rgb(166,241,255);fill-rule:nonzero;"/>
                <path d="M29.6,17.9L28,14.3C25.8,13.4 22.8,13.4 20.6,14.3L19,17.9L20.5,14.3C22.8,13.2 25.7,13.2 28,14.3L29.5,17.9L29.6,17.9Z" style="fill:rgb(166,241,255);fill-rule:nonzero;"/>
                <path d="M37.1,35.9L40.7,34.3C41.6,32.1 41.6,29.1 40.7,26.9L37.1,25.3L40.7,26.8C41.8,29.1 41.8,32 40.7,34.3L37.1,35.8L37.1,35.9Z" style="fill:rgb(166,241,255);fill-rule:nonzero;"/>
                <path d="M11.6,25.4L8,27C7.1,29.2 7.1,32.2 8,34.4L11.6,36L8,34.5C6.9,32.2 6.9,29.3 8,27L11.6,25.5L11.6,25.4Z" style="fill:rgb(166,241,255);fill-rule:nonzero;"/>
            </g>
            <g>
                <path d="M24.4,16.7C16.7,16.7 10.4,23 10.4,30.7C10.4,38.4 16.7,44.7 24.4,44.7C32.1,44.7 38.4,38.4 38.4,30.7C38.4,23 32.1,16.7 24.4,16.7ZM24.4,44.6C32.1,44.6 38.4,38.3 38.4,30.6M16.8,29.5C16.8,25.5 20.1,22.2 24.1,22.2C28.1,22.2 27.4,22.8 28.6,23.8C27.5,23.1 26.1,22.7 24.7,22.7C23.3,22.7 20.9,23.5 19.6,24.8C20.9,23.8 22.5,23.2 24.3,23.2C28.5,23.2 31.9,26.6 31.9,30.8C31.9,35 31.9,31.5 31.9,31.9C31.6,35.9 29,39.3 24.9,39.7C23.1,39.9 21.3,39.4 19.9,38.5C21.2,39.1 22.6,39.4 24.2,39.3C26.3,39.1 28.1,38.1 29.3,36.6C28,37.7 26.2,38.4 24.3,38.4C20.1,38.4 16.7,35 16.7,30.8L16.7,29.7L16.8,29.5Z" style="fill:url(#_Linear3);fill-rule:nonzero;"/>
                <g>
                    <g transform="matrix(0.189095,-0.981959,0.981959,0.189095,-10.3,48.8)">
                        <circle cx="24.4" cy="30.6" r="5.1" style="fill:url(#_Linear4);"/>
                    </g>
                    <path d="M21.7,34.1C20.8,33.3 20.2,32.1 20.2,30.8C20.2,28.3 22.2,26.4 24.6,26.4C27,26.4 26.5,26.7 27.2,27.3C26.4,26.6 25.4,26.2 24.3,26.2C21.8,26.2 19.9,28.2 19.9,30.6C19.9,33 20.6,33.4 21.7,34.2L21.7,34.1Z" style="fill:url(#_Linear5);fill-rule:nonzero;"/>
                    <path d="M24.4,25.6C26.4,25.6 28.4,26.8 29.1,28.7C30.9,32.8 26.5,37.2 22.4,35.4C20.5,34.6 19.2,32.7 19.3,30.7C19.3,35.1 24.9,37.4 27.9,34.3C31.1,31.2 28.8,25.6 24.3,25.7L24.4,25.6Z" style="fill:rgb(77,51,72);fill-rule:nonzero;"/>
                    <path d="M19.3,30.6C19.2,27.9 21.6,25.4 24.4,25.5C21.7,25.5 19.4,27.9 19.3,30.6Z" style="fill:rgb(255,184,61);fill-rule:nonzero;"/>
                </g>
                <path d="M16.6,40.8C14,38.5 12.3,35.1 12.3,31.3C12.3,24.3 18,18.6 25,18.6C32,18.6 30.4,19.5 32.5,21.1C30.3,19.1 27.3,17.9 24.1,17.9C17.1,17.9 11.4,23.6 11.4,30.6C11.4,37.6 13.4,38.5 16.5,40.8L16.6,40.8Z" style="fill:url(#_Linear6);fill-rule:nonzero;"/>
                <path d="M38.4,30.6C38.4,23.1 31.9,16.6 24.4,16.7C16.9,16.5 10.4,23.1 10.4,30.6C10.2,23.1 16.8,16.4 24.4,16.5C31.9,16.4 38.6,23 38.4,30.6Z" style="fill:rgb(166,241,255);fill-rule:nonzero;"/>
                <path d="M24.4,44.6C31.9,44.6 38.4,38.1 38.4,30.6C38.7,38.1 32,44.9 24.4,44.6Z" style="fill:rgb(16,62,120);fill-rule:nonzero;"/>
            </g>
        </g>
    </g>
    <g id="TEXTS">
    </g>
    <defs>
        <linearGradient id="_Linear1" x1="0" y1="0" x2="1" y2="0" gradientUnits="userSpaceOnUse" gradientTransform="matrix(-29,10.9,-10.9,-29,35.4,26.5)"><stop offset="0" style="stop-color:rgb(100,205,235);stop-opacity:1"/><stop offset="1" style="stop-color:rgb(6,31,84);stop-opacity:1"/></linearGradient>
        <radialGradient id="_Radial2" cx="0" cy="0" r="1" gradientUnits="userSpaceOnUse" gradientTransform="matrix(19.2,0,0,19.2,25,31.7)"><stop offset="0" style="stop-color:rgb(6,31,84);stop-opacity:1"/><stop offset="0.7" style="stop-color:rgb(8,35,88);stop-opacity:1"/><stop offset="1" style="stop-color:rgb(100,205,235);stop-opacity:1"/></radialGradient>
        <linearGradient id="_Linear3" x1="0" y1="0" x2="1" y2="0" gradientUnits="userSpaceOnUse" gradientTransform="matrix(0,28.2,-28.2,0,24.4,18.2)"><stop offset="0" style="stop-color:rgb(166,241,255);stop-opacity:1"/><stop offset="0.4" style="stop-color:rgb(100,205,235);stop-opacity:1"/><stop offset="1" style="stop-color:rgb(16,62,120);stop-opacity:1"/></linearGradient>
        <linearGradient id="_Linear4" x1="0" y1="0" x2="1" y2="0" gradientUnits="userSpaceOnUse" gradientTransform="matrix(-13.425291,6.964306,-6.964306,-13.425291,30.017373,27.744015)"><stop offset="0" style="stop-color:rgb(255,184,61);stop-opacity:1"/><stop offset="0.5" style="stop-color:rgb(255,67,61);stop-opacity:1"/><stop offset="1" style="stop-color:rgb(4,38,64);stop-opacity:1"/></linearGradient>
        <linearGradient id="_Linear5" x1="0" y1="0" x2="1" y2="0" gradientUnits="userSpaceOnUse" gradientTransform="matrix(-2.2,-9.7,9.7,-2.2,24,31)"><stop offset="0" style="stop-color:white;stop-opacity:0"/><stop offset="1" style="stop-color:white;stop-opacity:1"/></linearGradient>
        <linearGradient id="_Linear6" x1="0" y1="0" x2="1" y2="0" gradientUnits="userSpaceOnUse" gradientTransform="matrix(-130.82,-634.33,634.33,-130.82,500.92,752.99)"><stop offset="0" style="stop-color:white;stop-opacity:0"/><stop offset="1" style="stop-color:white;stop-opacity:1"/></linearGradient>
    </defs>
</svg>
