<?xml version="1.0" encoding="UTF-8"?>
<svg xmlns="http://www.w3.org/2000/svg" xmlns:xlink="http://www.w3.org/1999/xlink" version="1.1" viewBox="0 0 269.6 55.3">
  <!-- Generator: Adobe Illustrator 30.0.0, SVG Export Plug-In . SVG Version: 2.1.1 Build 123)  -->
  <defs>
    <style>
      .st0 {
        fill: #fff;
      }

      .st0, .st1 {
        font-family: FuturaBT-Bold, 'Futura Md BT';
        font-size: 34px;
        font-weight: 700;
      }

      .st2 {
        fill: #a6f1ff;
      }

      .st1 {
        fill: #a9f2ff;
      }

      .st3 {
        fill: #103e78;
      }

      .st4 {
        fill: #ffb83d;
      }

      .st5 {
        fill: url(#Degradado_sin_nombre_126);
      }

      .st6 {
        fill: url(#Degradado_sin_nombre_125);
      }

      .st7 {
        fill: url(#Degradado_sin_nombre_128);
      }

      .st8 {
        fill: url(#Degradado_sin_nombre_127);
      }

      .st9 {
        fill: url(#Degradado_sin_nombre_121);
      }

      .st10 {
        fill: url(#Degradado_sin_nombre_122);
      }

      .st11 {
        fill: url(#Degradado_sin_nombre_124);
      }

      .st12 {
        fill: url(#Degradado_sin_nombre_123);
      }

      .st13 {
        fill: url(#Degradado_sin_nombre_4);
      }

      .st14 {
        fill: url(#Degradado_sin_nombre_2);
      }

      .st15 {
        fill: url(#Degradado_sin_nombre_11);
      }

      .st16 {
        fill: url(#Degradado_sin_nombre_12);
      }

      .st17 {
        fill: url(#Degradado_sin_nombre_13);
      }

      .st18 {
        fill: url(#Degradado_sin_nombre_21);
      }

      .st19 {
        fill: #4d3348;
      }
    </style>
    <linearGradient id="Degradado_sin_nombre_12" data-name="Degradado sin nombre 12" x1="35.5" y1="-165" x2="24.6" y2="-194" gradientTransform="translate(200.4 62) rotate(-90)" gradientUnits="userSpaceOnUse">
      <stop offset="0" stop-color="#64cdeb"/>
      <stop offset="1" stop-color="#061f54"/>
    </linearGradient>
    <linearGradient id="Degradado_sin_nombre_121" data-name="Degradado sin nombre 12" x1="22.8" y1="10" x2="38.7" y2="45.4" gradientTransform="matrix(1,0,0,1,0,0)" xlink:href="#Degradado_sin_nombre_12"/>
    <linearGradient id="Degradado_sin_nombre_122" data-name="Degradado sin nombre 12" x1="9.9" y1="15.8" x2="25.9" y2="51.2" gradientTransform="matrix(1,0,0,1,0,0)" xlink:href="#Degradado_sin_nombre_12"/>
    <linearGradient id="Degradado_sin_nombre_123" data-name="Degradado sin nombre 12" x1="30.5" y1="6.5" x2="46.5" y2="41.9" gradientTransform="matrix(1,0,0,1,0,0)" xlink:href="#Degradado_sin_nombre_12"/>
    <radialGradient id="Degradado_sin_nombre_13" data-name="Degradado sin nombre 13" cx="20.3" cy="32.8" fx="20.3" fy="32.8" r="19.2" gradientTransform="translate(4.7 -1.1) scale(1)" gradientUnits="userSpaceOnUse">
      <stop offset="0" stop-color="#061f54"/>
      <stop offset=".7" stop-color="#082358"/>
      <stop offset="1" stop-color="#64cdeb"/>
    </radialGradient>
    <linearGradient id="Degradado_sin_nombre_124" data-name="Degradado sin nombre 12" x1="2.2" y1="19.3" x2="18.1" y2="54.7" gradientTransform="matrix(1,0,0,1,0,0)" xlink:href="#Degradado_sin_nombre_12"/>
    <linearGradient id="Degradado_sin_nombre_125" data-name="Degradado sin nombre 12" x1="21.8" y1="10.4" x2="37.8" y2="45.8" gradientTransform="matrix(1,0,0,1,0,0)" xlink:href="#Degradado_sin_nombre_12"/>
    <linearGradient id="Degradado_sin_nombre_126" data-name="Degradado sin nombre 12" x1="10.8" y1="15.4" x2="26.8" y2="50.8" gradientTransform="matrix(1,0,0,1,0,0)" xlink:href="#Degradado_sin_nombre_12"/>
    <linearGradient id="Degradado_sin_nombre_127" data-name="Degradado sin nombre 12" x1="1.8" y1="19.5" x2="17.8" y2="54.9" gradientTransform="matrix(1,0,0,1,0,0)" xlink:href="#Degradado_sin_nombre_12"/>
    <linearGradient id="Degradado_sin_nombre_128" data-name="Degradado sin nombre 12" x1="30.9" y1="6.3" x2="46.9" y2="41.7" gradientTransform="matrix(1,0,0,1,0,0)" xlink:href="#Degradado_sin_nombre_12"/>
    <linearGradient id="Degradado_sin_nombre_11" data-name="Degradado sin nombre 11" x1="24.4" y1="18.2" x2="24.4" y2="46.4" gradientUnits="userSpaceOnUse">
      <stop offset="0" stop-color="#a6f1ff"/>
      <stop offset=".4" stop-color="#64cdeb"/>
      <stop offset="1" stop-color="#103e78"/>
    </linearGradient>
    <linearGradient id="Degradado_sin_nombre_4" data-name="Degradado sin nombre 4" x1="22.6" y1="24.6" x2="26.9" y2="39.1" gradientTransform="translate(49.9 .9) rotate(79.1)" gradientUnits="userSpaceOnUse">
      <stop offset="0" stop-color="#ffb83d"/>
      <stop offset=".5" stop-color="#ff433d"/>
      <stop offset="1" stop-color="#042640"/>
    </linearGradient>
    <linearGradient id="Degradado_sin_nombre_2" data-name="Degradado sin nombre 2" x1="24" y1="31" x2="21.8" y2="21.3" gradientUnits="userSpaceOnUse">
      <stop offset="0" stop-color="#fff" stop-opacity="0"/>
      <stop offset="1" stop-color="#fff"/>
    </linearGradient>
    <linearGradient id="Degradado_sin_nombre_21" data-name="Degradado sin nombre 2" x1="23.2" y1="32.1" x2="17" y2="4.4" xlink:href="#Degradado_sin_nombre_2"/>
  </defs>
  <g id="OBJECTS">
    <g>
      <g>
        <path d="M24.4,28.7h0s0,0,0,0ZM24.4,28.7h0s0,0,0,0h0Z"/>
        <path d="M24.4,28.7h0s0,0,0,0ZM24.4,28.7h0s0,0,0,0h0Z"/>
      </g>
      <path class="st2" d="M24.4,31.8c0,.1,0,0,0,0,0,0,0,0,0,0h0ZM24.4,31.8c0,.1,0,0,0,0,0,0,0,0,0,0h0Z"/>
      <path class="st2" d="M24.4,31.8c0-.1,0,0,0,0,0,0,0,0,0,0h0ZM24.4,31.8c0-.1,0,0,0,0,0,0,0,0,0,0h0Z"/>
      <g>
        <path class="st16" d="M12.4,30.6c0,6.6,5.4,12,12,12,6.6,0,12-5.4,12-12s-5.4-12-12-12c-6.6,0-12,5.4-12,12ZM36.4,30.6c0-6.6-5.4-12-12-12M23.4,37.2c-3.5,0-6.3-2.8-6.3-6.3s.5-2.8,1.3-3.9c-.6,1-1,2.1-1,3.3s.7,3.2,1.8,4.4c-.9-1.1-1.4-2.5-1.4-4.1,0-3.6,2.9-6.5,6.5-6.5.3,0,.6,0,.9,0,3.4.3,6.3,2.5,6.7,6,.2,1.6-.2,3.1-1,4.3.5-1.1.8-2.4.7-3.7-.2-1.8-1-3.3-2.3-4.4,1,1.1,1.6,2.6,1.6,4.3,0,3.6-2.9,6.5-6.5,6.5h-1Z"/>
        <g>
          <path class="st9" d="M24.3,13.6s0,0,0,0c0,0,0,0,0,0h0Z"/>
          <path class="st10" d="M24.4,47.7s0,0,0,0c0,0,0,0,0,0h0Z"/>
          <path class="st12" d="M41.4,30.6s0,0,0,0c0,0,0,0,0,0h0Z"/>
          <path class="st17" d="M37.1,25.4l1.5-3.6s-.4-1.4-2.1-3.2c-1.8-1.7-3.2-2.1-3.2-2.1l-3.6,1.5-1.5-3.6s-1.3-.7-3.7-.7c-2.5,0-3.7.7-3.7.7l-1.5,3.6-3.6-1.5s-1.4.4-3.2,2.1c-1.7,1.8-2.1,3.2-2.1,3.2l1.5,3.6-3.6,1.5s-.7,1.3-.7,3.7c0,2.5.7,3.7.7,3.7l3.6,1.5-1.5,3.6s.4,1.4,2.1,3.2c1.8,1.7,3.2,2.1,3.2,2.1l3.6-1.5,1.5,3.6s1.3.7,3.7.7c2.5,0,3.7-.7,3.7-.7l1.5-3.6,3.6,1.5s1.4-.4,3.2-2.1c1.7-1.8,2.1-3.2,2.1-3.2l-1.5-3.6,3.6-1.5s.7-1.3.7-3.7c0-2.5-.7-3.7-.7-3.7l-3.6-1.5ZM24.3,13.6s0,0,0,0c0,0,0,0,0,0h0ZM29.6,17.9l-1.5-3.6s-1.3-.7-3.7-.7c-2.5,0-3.7.7-3.7.7l-1.5,3.6M31.6,38h0c-1.9,1.9-4.4,3-7.1,3h-.2c-2.7,0-5.2-1.1-7.1-2.9h0c0,0,0,0,0,0,0,0,0,0,0,0-1.9-1.9-2.9-4.4-2.9-7.1h0v-.2c0-2.7,1.1-5.2,2.9-7.1,0,0,0,0,0,0,0,0,0,0,0,0h0c1.9-1.9,4.4-3,7.1-3h.2c2.7,0,5.2,1.1,7.1,2.9,0,0,0,0,0,0,0,0,0,0,0,0,0,0,0,0,0,0,1.9,1.9,2.9,4.4,2.9,7.1h0v.2c0,2.7-1.1,5.2-2.9,7.1h0Z"/>
          <path class="st2" d="M24.3,13.6c.1,0,0,0,0,0,0,0,0,0,0,0h0ZM24.3,13.6c.1,0,0,0,0,0,0,0,0,0,0,0h0Z"/>
          <path class="st2" d="M29.6,17.9l-1.6-3.6c-2.2-.9-5.2-.9-7.4,0,0,0-1.6,3.6-1.6,3.6l1.5-3.6c2.3-1.1,5.2-1.1,7.5,0,0,0,1.5,3.6,1.5,3.6h0Z"/>
          <path class="st2" d="M37.1,35.9l3.6-1.6c.9-2.2.9-5.2,0-7.4,0,0-3.6-1.6-3.6-1.6l3.6,1.5c1.1,2.3,1.1,5.2,0,7.5,0,0-3.6,1.5-3.6,1.5h0Z"/>
          <path class="st2" d="M11.6,25.4l-3.6,1.6c-.9,2.2-.9,5.2,0,7.4,0,0,3.6,1.6,3.6,1.6l-3.6-1.5c-1.1-2.3-1.1-5.2,0-7.5,0,0,3.6-1.5,3.6-1.5h0Z"/>
          <path class="st11" d="M7.3,30.7s0,0,0,0c0,0,0,0,0,0h0Z"/>
          <path class="st6" d="M36.5,42.7s0,0,0,0c0,0,0,0,0,0h0Z"/>
          <path class="st5" d="M12.2,18.6s0,0,0,0c0,0,0,0,0,0h0Z"/>
          <path class="st8" d="M12.3,42.7s0,0,0,0c0,0,0,0,0,0h0Z"/>
          <path class="st7" d="M36.4,18.5s0,0,0,0c0,0,0,0,0,0h0Z"/>
        </g>
        <g>
          <path class="st15" d="M24.4,16.7c-7.7,0-14,6.3-14,14s6.3,14,14,14,14-6.3,14-14-6.3-14-14-14ZM24.4,44.6c7.7,0,14-6.3,14-14M16.8,29.5c0-4,3.3-7.3,7.3-7.3s3.3.6,4.5,1.6c-1.1-.7-2.5-1.1-3.9-1.1s-3.8.8-5.1,2.1c1.3-1,2.9-1.6,4.7-1.6,4.2,0,7.6,3.4,7.6,7.6s0,.7,0,1.1c-.3,4-2.9,7.4-7,7.8-1.8.2-3.6-.3-5-1.2,1.3.6,2.7.9,4.3.8,2.1-.2,3.9-1.2,5.1-2.7-1.3,1.1-3.1,1.8-5,1.8-4.2,0-7.6-3.4-7.6-7.6v-1.1Z"/>
          <g>
            <circle class="st13" cx="24.4" cy="30.6" r="5.1" transform="translate(-10.3 48.8) rotate(-79.1)"/>
            <path class="st14" d="M21.7,34.1c-.9-.8-1.5-2-1.5-3.3,0-2.5,2-4.4,4.4-4.4s1.9.3,2.6.9c-.8-.7-1.8-1.1-2.9-1.1-2.5,0-4.4,2-4.4,4.4s.7,2.8,1.8,3.6Z"/>
            <path class="st19" d="M24.4,25.6c2,0,4,1.2,4.7,3.1,1.8,4.1-2.6,8.5-6.7,6.7-1.9-.8-3.2-2.7-3.1-4.7,0,4.4,5.6,6.7,8.6,3.6,3.2-3.1.9-8.7-3.6-8.6h0Z"/>
            <path class="st4" d="M19.3,30.6c-.1-2.7,2.3-5.2,5.1-5.1-2.7,0-5,2.4-5.1,5.1h0Z"/>
          </g>
          <path class="st18" d="M16.6,40.8c-2.6-2.3-4.3-5.7-4.3-9.5,0-7,5.7-12.7,12.7-12.7s5.4.9,7.5,2.5c-2.2-2-5.2-3.2-8.4-3.2-7,0-12.7,5.7-12.7,12.7s2,7.9,5.1,10.2Z"/>
          <path class="st2" d="M38.4,30.6c0-7.5-6.5-14-14-13.9-7.5-.2-14,6.4-14,13.9-.2-7.5,6.4-14.2,14-14.1,7.5-.1,14.2,6.5,14,14.1h0Z"/>
          <path class="st3" d="M24.4,44.6c7.5,0,14-6.5,14-14,.3,7.5-6.4,14.3-14,14h0Z"/>
        </g>
      </g>
    </g>
  </g>
  <g id="TEXTS">
    <g>
      <text class="st0" transform="translate(48 42.7) scale(1.2 1)"><tspan x="0" y="0">GPZ-CARS</tspan></text>
      <text class="st1" transform="translate(48 42.7) scale(1.2 1)"><tspan x="0" y="0">GPZ-CARS</tspan></text>
    </g>
  </g>
</svg>