<?xml version="1.0" encoding="UTF-8" standalone="no"?>
<!DOCTYPE svg PUBLIC "-//W3C//DTD SVG 1.1//EN" "http://www.w3.org/Graphics/SVG/1.1/DTD/svg11.dtd">
<svg width="100%" height="100%" viewBox="0 0 968 968" version="1.1" xmlns="http://www.w3.org/2000/svg" xmlns:xlink="http://www.w3.org/1999/xlink" xml:space="preserve" xmlns:serif="http://www.serif.com/" style="fill-rule:evenodd;clip-rule:evenodd;stroke-linejoin:round;stroke-miterlimit:2;">
    <g transform="matrix(1.744892,0,0,1.744892,-2567.399074,-1325.189603)">
        <path d="M2025.93,1036.74C2025.93,1189.88 1901.79,1314.02 1748.65,1314.02C1595.52,1314.02 1471.38,1189.88 1471.38,1036.74C1471.38,883.609 1595.52,759.468 1748.65,759.468C1901.79,759.468 2025.93,883.609 2025.93,1036.74Z" style="fill:rgb(192,211,218);fill-rule:nonzero;"/>
    </g>
    <g transform="matrix(1.744892,0,0,1.744892,-2567.399074,-1325.189603)">
        <path d="M1748.65,815.174C1626.48,815.174 1527.08,914.571 1527.08,1036.74C1527.08,1158.92 1626.48,1258.31 1748.65,1258.31C1870.83,1258.31 1970.22,1158.92 1970.22,1036.74C1970.22,914.571 1870.83,815.174 1748.65,815.174ZM1748.65,1278.18C1684.16,1278.18 1623.53,1253.07 1577.93,1207.47C1532.33,1161.86 1507.22,1101.23 1507.22,1036.74C1507.22,972.254 1532.33,911.623 1577.93,866.022C1623.53,820.42 1684.16,795.307 1748.65,795.307C1813.14,795.307 1873.77,820.42 1919.38,866.022C1964.98,911.623 1990.09,972.254 1990.09,1036.74C1990.09,1101.23 1964.98,1161.86 1919.38,1207.47C1873.77,1253.07 1813.14,1278.18 1748.65,1278.18Z" style="fill:rgb(136,169,179);fill-rule:nonzero;"/>
    </g>
    <g transform="matrix(1.744892,0,0,1.744892,-2567.399074,-1325.189603)">
        <path d="M1812.91,947.984C1812.91,983.47 1784.14,1012.24 1748.65,1012.24C1713.17,1012.24 1684.4,983.47 1684.4,947.984C1684.4,912.498 1713.17,883.731 1748.65,883.731C1784.14,883.731 1812.91,912.498 1812.91,947.984Z" style="fill:rgb(136,169,179);fill-rule:nonzero;"/>
    </g>
    <g transform="matrix(1.744892,0,0,1.744892,-2567.399074,-1325.189603)">
        <path d="M1815.19,1189.76L1682.12,1189.76C1657.16,1189.76 1636.92,1169.52 1636.92,1144.56C1636.92,1082.85 1686.95,1032.831 1748.65,1032.831C1810.36,1032.831 1860.38,1082.85 1860.38,1144.56C1860.38,1169.52 1840.15,1189.76 1815.19,1189.76Z" style="fill:rgb(136,169,179);fill-rule:nonzero;"/>
    </g>
</svg>
